<svg xmlns="http://www.w3.org/2000/svg" width="28.302" height="22.642" viewBox="0 0 28.302 22.642">
    <path id="Icon_awesome-user-plus" data-name="Icon awesome-user-plus" d="M27.595,9.2h-2.83V6.368a.71.71,0,0,0-.708-.708H22.642a.71.71,0,0,0-.708.708V9.2H19.1a.71.71,0,0,0-.708.708v1.415a.71.71,0,0,0,.708.708h2.83v2.83a.71.71,0,0,0,.708.708h1.415a.71.71,0,0,0,.708-.708v-2.83h2.83a.71.71,0,0,0,.708-.708V9.906A.71.71,0,0,0,27.595,9.2ZM9.906,11.321a5.66,5.66,0,1,0-5.66-5.66A5.66,5.66,0,0,0,9.906,11.321Zm3.962,1.415H13.13a7.7,7.7,0,0,1-6.448,0H5.944A5.945,5.945,0,0,0,0,18.68v1.84a2.123,2.123,0,0,0,2.123,2.123H17.689a2.123,2.123,0,0,0,2.123-2.123V18.68A5.945,5.945,0,0,0,13.868,12.736Z" fill="#43a047"/>
</svg>
