<svg xmlns="http://www.w3.org/2000/svg" width="34.72" height="27.128" viewBox="0 0 34.72 27.128">
  <path id="Icon_awesome-exchange-alt" data-name="Icon awesome-exchange-alt" d="M0,11.533V10.448A1.628,1.628,0,0,1,1.628,8.82H26.04V5.565a1.629,1.629,0,0,1,2.778-1.151l5.425,5.425a1.628,1.628,0,0,1,0,2.3l-5.425,5.425a1.629,1.629,0,0,1-2.778-1.151V13.16H1.628A1.628,1.628,0,0,1,0,11.533ZM33.093,21.84H8.68V18.585A1.629,1.629,0,0,0,5.9,17.434L.477,22.859a1.628,1.628,0,0,0,0,2.3L5.9,30.586A1.629,1.629,0,0,0,8.68,29.435V26.18H33.093a1.628,1.628,0,0,0,1.628-1.628V23.468A1.628,1.628,0,0,0,33.093,21.84Z" transform="translate(0 -3.936)" fill="#6bab6e"/>
</svg>
