<svg id="pick_a_date_btn" data-name="pick a date btn" xmlns="http://www.w3.org/2000/svg" width="227" height="51" viewBox="0 0 227 51">
  <g id="Tracé_14" data-name="Tracé 14" fill="#fff">
    <path d="M 213 50.5 L 14 50.5 C 10.39402961730957 50.5 7.00388240814209 49.09576416015625 4.454058647155762 46.54594039916992 C 1.904235243797302 43.99614715576172 0.5 40.60597229003906 0.5 37 L 0.5 14 C 0.5 10.39402961730957 1.904235243797302 7.003852844238281 4.454058647155762 4.454058647155762 C 7.00388240814209 1.904235243797302 10.39402961730957 0.5 14 0.5 L 213 0.5 C 216.6060028076172 0.5 219.9961395263672 1.904235243797302 222.5459442138672 4.454058647155762 C 225.0957641601562 7.003852844238281 226.5 10.39400005340576 226.5 14 L 226.5 37 C 226.5 40.60599899291992 225.0957641601562 43.99614715576172 222.5459442138672 46.54594039916992 C 219.9961395263672 49.09576416015625 216.6060028076172 50.5 213 50.5 Z" stroke="none"/>
    <path d="M 14 1 C 10.52755737304688 1 7.262969970703125 2.35223388671875 4.8076171875 4.8076171875 C 2.35223388671875 7.262969970703125 1 10.52755737304688 1 14 L 1 37 C 1 40.47244262695312 2.35223388671875 43.73703002929688 4.8076171875 46.1923828125 C 7.262969970703125 48.64776611328125 10.52755737304688 50 14 50 L 213 50 C 216.4724426269531 50 219.7370300292969 48.64776611328125 222.1923828125 46.1923828125 C 224.6477661132812 43.73703002929688 226 40.47244262695312 226 37 L 226 14 C 226 10.52755737304688 224.6477661132812 7.262969970703125 222.1923828125 4.8076171875 C 219.7370300292969 2.35223388671875 216.4724426269531 1 213 1 L 14 1 M 14 0 L 213 0 C 220.7319946289062 0 227 6.268001556396484 227 14 L 227 37 C 227 44.73199844360352 220.7319946289062 51 213 51 L 14 51 C 6.26800537109375 51 0 44.73199844360352 0 37 L 0 14 C 0 6.268001556396484 6.26800537109375 0 14 0 Z" stroke="none" fill="#6bab6e"/>
  </g>
  <text id="Semaine_dernère" data-name="Semaine dernère" transform="translate(16 32)" fill="#444" font-size="18" font-family="Poppins-Regular, Poppins"><tspan x="0" y="0">Semaine dernère</tspan></text>
  <path id="Icon_material-date-range" data-name="Icon material-date-range" d="M13.5,16.5h-3v3h3Zm6,0h-3v3h3Zm6,0h-3v3h3ZM28.5,6H27V3H24V6H12V3H9V6H7.5A2.986,2.986,0,0,0,4.515,9L4.5,30a3,3,0,0,0,3,3h21a3.009,3.009,0,0,0,3-3V9A3.009,3.009,0,0,0,28.5,6Zm0,24H7.5V13.5h21Z" transform="translate(175.5 7)" fill="#6bab6e"/>
</svg>
