<svg xmlns="http://www.w3.org/2000/svg" width="26.854" height="23.866" viewBox="0 0 26.854 23.866">
    <path id="Icon_awesome-edit" data-name="Icon awesome-edit" d="M18.77,3.881l4.205,4.205a.456.456,0,0,1,0,.643L12.793,18.912l-4.326.48a.907.907,0,0,1-1-1l.48-4.326L18.126,3.881A.456.456,0,0,1,18.77,3.881Zm7.553-1.068L24.047.539a1.823,1.823,0,0,0-2.574,0l-1.65,1.65a.456.456,0,0,0,0,.643l4.205,4.205a.456.456,0,0,0,.643,0l1.65-1.65a1.823,1.823,0,0,0,0-2.574ZM17.9,16.143v4.746H2.984V5.97H13.7a.573.573,0,0,0,.4-.163l1.865-1.865a.559.559,0,0,0-.4-.956H2.238A2.238,2.238,0,0,0,0,5.224V21.635a2.238,2.238,0,0,0,2.238,2.238H18.649a2.238,2.238,0,0,0,2.238-2.238V14.278a.56.56,0,0,0-.956-.4l-1.865,1.865A.573.573,0,0,0,17.9,16.143Z" transform="translate(0 -0.007)" fill="#fff"/>
</svg>
