<svg id="five_empty_stars" data-name="five empty stars" xmlns="http://www.w3.org/2000/svg" width="174" height="28.5" viewBox="0 0 174 28.5">
  <path id="Icon_material-star-border" data-name="Icon material-star-border" d="M33,13.86l-10.785-.93L18,3l-4.215,9.945L3,13.86l8.19,7.1L8.73,31.5,18,25.905,27.27,31.5,24.825,20.955ZM18,23.1l-5.64,3.405,1.5-6.42-4.98-4.32,6.57-.57L18,9.15l2.565,6.06,6.57.57-4.98,4.32,1.5,6.42Z" transform="translate(-3 -3)" fill="#fdd835"/>
  <path id="Icon_material-star-border-2" data-name="Icon material-star-border" d="M33,13.86l-10.785-.93L18,3l-4.215,9.945L3,13.86l8.19,7.1L8.73,31.5,18,25.905,27.27,31.5,24.825,20.955ZM18,23.1l-5.64,3.405,1.5-6.42-4.98-4.32,6.57-.57L18,9.15l2.565,6.06,6.57.57-4.98,4.32,1.5,6.42Z" transform="translate(33 -3)" fill="#fdd835"/>
  <path id="Icon_material-star-border-3" data-name="Icon material-star-border" d="M33,13.86l-10.785-.93L18,3l-4.215,9.945L3,13.86l8.19,7.1L8.73,31.5,18,25.905,27.27,31.5,24.825,20.955ZM18,23.1l-5.64,3.405,1.5-6.42-4.98-4.32,6.57-.57L18,9.15l2.565,6.06,6.57.57-4.98,4.32,1.5,6.42Z" transform="translate(69 -3)" fill="#fdd835"/>
  <path id="Icon_material-star-border-4" data-name="Icon material-star-border" d="M33,13.86l-10.785-.93L18,3l-4.215,9.945L3,13.86l8.19,7.1L8.73,31.5,18,25.905,27.27,31.5,24.825,20.955ZM18,23.1l-5.64,3.405,1.5-6.42-4.98-4.32,6.57-.57L18,9.15l2.565,6.06,6.57.57-4.98,4.32,1.5,6.42Z" transform="translate(105 -3)" fill="#fdd835"/>
  <path id="Icon_material-star-border-5" data-name="Icon material-star-border" d="M33,13.86l-10.785-.93L18,3l-4.215,9.945L3,13.86l8.19,7.1L8.73,31.5,18,25.905,27.27,31.5,24.825,20.955ZM18,23.1l-5.64,3.405,1.5-6.42-4.98-4.32,6.57-.57L18,9.15l2.565,6.06,6.57.57-4.98,4.32,1.5,6.42Z" transform="translate(141 -3)" fill="#fdd835"/>
</svg>
