<svg xmlns="http://www.w3.org/2000/svg" width="33.75" height="27" viewBox="0 0 33.75 27">
  <path id="Icon_awesome-user-plus" data-name="Icon awesome-user-plus" d="M32.906,10.969H29.531V7.594a.846.846,0,0,0-.844-.844H27a.846.846,0,0,0-.844.844v3.375H22.781a.846.846,0,0,0-.844.844V13.5a.846.846,0,0,0,.844.844h3.375v3.375a.846.846,0,0,0,.844.844h1.688a.846.846,0,0,0,.844-.844V14.344h3.375a.846.846,0,0,0,.844-.844V11.813A.846.846,0,0,0,32.906,10.969ZM11.813,13.5a6.75,6.75,0,1,0-6.75-6.75A6.749,6.749,0,0,0,11.813,13.5Zm4.725,1.688h-.881a9.18,9.18,0,0,1-7.689,0H7.087A7.089,7.089,0,0,0,0,22.275v2.194A2.532,2.532,0,0,0,2.531,27H21.094a2.532,2.532,0,0,0,2.531-2.531V22.275A7.089,7.089,0,0,0,16.537,15.188Z"/>
</svg>
