<svg xmlns="http://www.w3.org/2000/svg" width="33.09" height="34.664" viewBox="0 0 33.09 34.664">
    <path id="Icon_simple-instagram" data-name="Icon simple-instagram" d="M16.545,0C12.05,0,11.489.022,9.724.1A11.718,11.718,0,0,0,5.708.91a8.074,8.074,0,0,0-2.931,2A8.508,8.508,0,0,0,.869,5.98,13.274,13.274,0,0,0,.1,10.187C.017,12.036,0,12.623,0,17.332s.021,5.3.1,7.145a13.321,13.321,0,0,0,.769,4.207,8.552,8.552,0,0,0,1.908,3.071,8.063,8.063,0,0,0,2.931,2,11.732,11.732,0,0,0,4.016.806c1.765.087,2.326.1,6.821.1s5.056-.022,6.821-.1a11.759,11.759,0,0,0,4.016-.806,8.1,8.1,0,0,0,2.931-2,8.515,8.515,0,0,0,1.908-3.071,13.321,13.321,0,0,0,.769-4.207c.083-1.849.1-2.437.1-7.145s-.021-5.3-.1-7.145a13.352,13.352,0,0,0-.769-4.207,8.558,8.558,0,0,0-1.908-3.071,8.034,8.034,0,0,0-2.931-2A11.691,11.691,0,0,0,23.366.1C21.6.017,21.04,0,16.545,0Zm0,3.12c4.416,0,4.943.023,6.687.1a8.757,8.757,0,0,1,3.07.6,5.121,5.121,0,0,1,1.905,1.294A5.386,5.386,0,0,1,29.443,7.11a9.967,9.967,0,0,1,.569,3.217c.079,1.829.1,2.377.1,7.005s-.021,5.178-.1,7.005a10.158,10.158,0,0,1-.58,3.217,5.535,5.535,0,0,1-1.239,2,5.145,5.145,0,0,1-1.9,1.294,8.839,8.839,0,0,1-3.082.6c-1.757.082-2.274.1-6.7.1s-4.944-.022-6.7-.107a9.013,9.013,0,0,1-3.083-.608,5.108,5.108,0,0,1-1.9-1.3,5.293,5.293,0,0,1-1.241-1.993A10.245,10.245,0,0,1,3,24.307c-.062-1.82-.084-2.382-.084-7s.022-5.179.084-7.021a10.233,10.233,0,0,1,.579-3.227A5.167,5.167,0,0,1,4.82,5.068a4.879,4.879,0,0,1,1.9-1.3,8.8,8.8,0,0,1,3.062-.608c1.758-.065,2.275-.087,6.7-.087l.062.043Zm0,5.312a8.7,8.7,0,0,0-8.5,8.9,8.7,8.7,0,0,0,8.5,8.9,8.7,8.7,0,0,0,8.5-8.9A8.7,8.7,0,0,0,16.545,8.432Zm0,14.677a5.649,5.649,0,0,1-5.515-5.777,5.649,5.649,0,0,1,5.515-5.777,5.649,5.649,0,0,1,5.515,5.777A5.649,5.649,0,0,1,16.545,23.109ZM27.363,8.081a1.988,1.988,0,1,1-3.971,0,1.987,1.987,0,1,1,3.971,0Z"/>
</svg>
