<svg xmlns="http://www.w3.org/2000/svg" width="33.12" height="30.685" viewBox="0 0 33.12 30.685">
  <path id="Icon_map-search" data-name="Icon map-search" d="M25.675,19.81a11.382,11.382,0,0,0,1.9-6.26c0-6.69-5.843-12.107-13.065-12.11S1.44,6.86,1.44,13.548s5.85,12.1,13.069,12.1a13.763,13.763,0,0,0,6.756-1.756l8.887,8.233L34.56,28.04ZM14.508,21.038c-4.465-.01-8.076-3.353-8.083-7.482s3.621-7.484,8.083-7.49c4.463.011,8.075,3.354,8.084,7.49-.009,4.124-3.622,7.472-8.084,7.482Z" transform="translate(-1.44 -1.44)" fill="#2e2e2e"/>
</svg>
