<svg xmlns="http://www.w3.org/2000/svg" width="34.027" height="31.668" viewBox="0 0 34.027 31.668">
    <path id="Icon_ionic-ios-star-outline" data-name="Icon ionic-ios-star-outline" d="M34.024,13.991H23.179l-3.3-9.834a1.194,1.194,0,0,0-2.241,0l-3.3,9.834H3.43a1.183,1.183,0,0,0-1.18,1.18.867.867,0,0,0,.022.2,1.133,1.133,0,0,0,.494.833l8.913,6.281L8.258,32.428a1.183,1.183,0,0,0,.405,1.327,1.141,1.141,0,0,0,.663.288,1.445,1.445,0,0,0,.737-.265l8.7-6.2,8.7,6.2a1.381,1.381,0,0,0,.737.265,1.059,1.059,0,0,0,.656-.288,1.168,1.168,0,0,0,.405-1.327l-3.421-9.945,8.839-6.34.214-.184a1.237,1.237,0,0,0,.383-.789A1.248,1.248,0,0,0,34.024,13.991ZM24.646,20.81a2.07,2.07,0,0,0-.752,2.344l2.219,6.465a.3.3,0,0,1-.45.339l-5.706-4.069a2.06,2.06,0,0,0-1.2-.383,2.022,2.022,0,0,0-1.194.383l-5.706,4.062a.3.3,0,0,1-.45-.339l2.219-6.465a2.077,2.077,0,0,0-.759-2.359L6.894,16.578a.3.3,0,0,1,.17-.538H14.34a2.061,2.061,0,0,0,1.954-1.408l2.182-6.5a.3.3,0,0,1,.56,0l2.182,6.5a2.061,2.061,0,0,0,1.954,1.408h7.173a.292.292,0,0,1,.17.531Z" transform="translate(-1.75 -2.875)" fill="#FDD835" stroke="rgba(255,255,255,0.26)" stroke-width="1"/>
</svg>
