<svg xmlns="http://www.w3.org/2000/svg" width="5.141" height="25.566" viewBox="0 0 5.141 25.566">
  <path id="Icon_metro-more-vert" data-name="Icon metro-more-vert" d="M17.995,14.1c1.42,0,2.571-1.43,2.571-3.2s-1.15-3.2-2.571-3.2-2.571,1.43-2.571,3.2S16.575,14.1,17.995,14.1Zm0,3.2c-1.42,0-2.571,1.43-2.571,3.2s1.15,3.2,2.571,3.2,2.571-1.43,2.571-3.2S19.415,17.3,17.995,17.3Zm0,9.587c-1.42,0-2.571,1.43-2.571,3.2s1.15,3.2,2.571,3.2,2.571-1.43,2.571-3.2S19.415,26.886,17.995,26.886Z" transform="translate(-15.424 -7.712)"/>
</svg>
