<svg xmlns="http://www.w3.org/2000/svg" width="42.637" height="34.664" viewBox="0 0 42.637 34.664">
    <path id="Icon_zocial-twitter" data-name="Icon zocial-twitter" d="M-4.738,30.387q1.041.1,2.08.1A17.2,17.2,0,0,0,8.226,26.749a8.429,8.429,0,0,1-5.095-1.735A8.524,8.524,0,0,1,.046,20.68a8.243,8.243,0,0,0,1.629.14A8.567,8.567,0,0,0,4,20.507a8.434,8.434,0,0,1-5.044-3,8.476,8.476,0,0,1-1.993-5.564v-.1A8.206,8.206,0,0,0,.946,12.915a8.587,8.587,0,0,1-2.859-3.1A8.528,8.528,0,0,1-2.97,5.637a8.5,8.5,0,0,1,1.213-4.4A24.32,24.32,0,0,0,6.2,7.7a24.622,24.622,0,0,0,10.07,2.686,9.836,9.836,0,0,1-.244-2.011,8.412,8.412,0,0,1,2.565-6.17A8.454,8.454,0,0,1,24.8-.359a8.4,8.4,0,0,1,6.377,2.774A17.6,17.6,0,0,0,36.72.265a8.337,8.337,0,0,1-3.813,4.853A17.86,17.86,0,0,0,37.9,3.732a16.783,16.783,0,0,1-4.334,4.54V9.417a25.084,25.084,0,0,1-1.023,7.019,24.977,24.977,0,0,1-3.12,6.727,26.779,26.779,0,0,1-5.009,5.7,22.2,22.2,0,0,1-6.985,3.97A25.526,25.526,0,0,1,8.675,34.3,24.558,24.558,0,0,1-4.738,30.387Z" transform="translate(4.738 0.359)"/>
</svg>
