<svg xmlns="http://www.w3.org/2000/svg" width="41.102" height="30.833" viewBox="0 0 41.102 30.833">
  <path id="Icon_ionic-logo-youtube" data-name="Icon ionic-logo-youtube" d="M40.835,11.308a6.241,6.241,0,0,0-5.941-6.519C30.446,4.58,25.909,4.5,21.277,4.5H19.831c-4.625,0-9.169.08-13.617.289C2.939,4.789.281,7.712.281,11.325.08,14.183-.008,17.041,0,19.9q-.012,4.287.273,8.583c0,3.613,2.658,6.544,5.933,6.544,4.673.217,9.466.313,14.34.305q7.322.024,14.34-.305c3.284,0,5.941-2.931,5.941-6.544.193-2.866.281-5.725.273-8.591Q41.124,15.6,40.835,11.308ZM16.62,27.776V12l11.642,7.884Z" transform="translate(0 -4.5)"/>
</svg>
